<svg xmlns="http://www.w3.org/2000/svg" x="0px" y="0px"
width="100" 
viewBox="0 0 226 226"><g fill="none" fill-rule="nonzero" stroke="none" stroke-width="1" stroke-linecap="butt" stroke-linejoin="miter" stroke-miterlimit="10" stroke-dasharray="" stroke-dashoffset="0" font-family="none" font-weight="none" font-size="none" text-anchor="none" style="mix-blend-mode: normal"><path d="M0,226v-226h226v226z" fill="none"></path><g><path d="M67.8,45.2h9.04c0,0 2.26,27.12 27.12,40.68l19.4925,-0.565c0,0 27.9675,-24.295 25.7075,-40.115h9.04v38.42l-35.8775,12.7125c0,0 -3.6725,-3.6725 -5.3675,-2.5425l-9.8875,0.2825c0,0 -3.6725,-0.8475 -3.39,2.26l-36.16,-12.7125l2.5425,-4.52z" fill="#f15b6c"></path><path d="M76.84,45.2h72.32c0,0 -9.04,45.2 -33.9,38.42h-9.04c0,0 -27.12,-2.26 -29.38,-38.42z" fill="#8e9db5"></path><path d="M63.28,82.2075c0,0 -7.345,39.2675 1.9775,40.68l38.42,-6.78l2.5425,1.4125h13.56l3.1075,-1.9775l37.29,7.6275c0,0 16.1025,-25.99 0.2825,-39.55l-38.42,13.56l-2.26,-3.1075l-13.56,0.8475l-2.26,2.26z" fill="#f58f8f"></path><path d="M72.32,122.04l29.38,-5.3675c0,0 6.78,3.1075 9.04,3.1075c0,0 9.605,0 11.5825,-3.39l32.205,5.9325l-35.595,68.6475c0,0 -6.4975,4.52 -12.995,-1.695c-6.4975,-6.215 0.2825,0.565 0.2825,0.565z" fill="#f15b6c"></path><path d="M164.7766,80.42436c-0.452,-0.99214 -1.55036,-1.52324 -2.60578,-1.25656l-1.71082,0.42714v-32.13494c0,-1.24978 -1.01248,-2.26 -2.26,-2.26c-1.24752,0 -2.26,1.01022 -2.26,2.26v35.03c0,0.25764 0.08588,0.4972 0.1695,0.7345l-33.3124,11.75652c-1.03508,-1.4125 -2.6894,-2.32102 -4.54486,-2.32102h-10.50448c-1.85546,0 -3.50752,0.90852 -4.54486,2.32328l-33.89548,-11.96218c0.45426,-0.41358 0.75258,-0.99666 0.75258,-1.6611v-33.9c0,-1.24978 -1.01248,-2.26 -2.26,-2.26c-1.24752,0 -2.26,1.01022 -2.26,2.26v31.64h-2.26c-1.00796,0 -1.89614,0.66896 -2.17186,1.64076c-0.3842,1.3447 -9.266,33.05702 2.83404,45.15706c0.42262,0.42488 0.99892,0.66218 1.59782,0.66218h6.49298l31.38462,63.51504c2.07694,3.32446 5.65904,5.30874 9.5824,5.30874c3.92336,0 7.5032,-1.98428 9.69314,-5.50762l31.27388,-63.31616h6.49298c0.7119,0 1.38086,-0.33448 1.808,-0.904c14.19958,-18.93428 2.9945,-44.16492 2.5086,-45.23164zM158.84636,84.65734l2.11084,-0.52884l1.45544,4.23976c2.57188,7.5032 3.01936,15.65502 1.39442,23.4023c-0.80908,3.3787 -2.1583,6.7348 -4.26914,9.8875l-35.75094,-6.30766c0.01356,-0.06328 0.04068,-0.12204 0.05198,-0.18758l1.42154,-7.64784c0.1243,-0.67122 0.12656,-1.35148 0.00678,-2.02496l-1.45318,-8.17216c-0.01582,-0.09492 -0.05198,-0.1808 -0.07458,-0.27346zM107.74776,94.92h10.50448c1.64528,0 3.04874,1.17746 3.33802,2.79788l1.45318,8.1699c0.07006,0.40454 0.07006,0.81134 -0.00452,1.21362l-1.42154,7.64784c-0.29832,1.6046 -1.70178,2.77076 -3.3335,2.77076h-10.56776c-1.63172,0 -3.03518,-1.16616 -3.3335,-2.77076l-1.42154,-7.64784c-0.07458,-0.40228 -0.07684,-0.80908 -0.00452,-1.21136l1.45318,-8.17216c0.28928,-1.62042 1.69274,-2.79788 3.33802,-2.79788zM100.7395,107.51724l1.42154,7.64784c0.0113,0.06554 0.03842,0.12204 0.05198,0.18758l-35.93626,6.3393c-7.00374,-8.75524 -3.4917,-28.3404 -1.67918,-36.26848l0.51076,-1.48708l37.14988,13.11252c-0.02034,0.09266 -0.0565,0.17854 -0.07458,0.27346l-1.45318,8.17442c-0.11752,0.67122 -0.11526,1.34922 0.00904,2.02044zM118.74944,187.67718c-1.24752,1.99558 -3.39678,3.18434 -5.74944,3.18434c-2.35266,0 -4.50192,-1.18876 -5.64096,-2.98546l-32.32026,-65.43378l27.98784,-4.9381c0.05198,-0.00904 0.09266,-0.04068 0.14012,-0.05424c1.03734,1.41702 2.69618,2.33006 4.54938,2.33006h10.56776c1.8532,0 3.51204,-0.91304 4.54938,-2.33232c0.04746,0.01582 0.08814,0.0452 0.14012,0.05424l27.98784,4.9381z" fill="#1f212b"></path><path d="M119.78,88.14h-11.3c-13.96906,0 -33.9,-24.85096 -33.9,-38.42v-2.26c0,-1.24978 1.01248,-2.26 2.26,-2.26c1.24752,0 2.26,1.01022 2.26,2.26v2.26c0,11.08304 18.1478,33.9 29.38,33.9h11.3c10.90902,0 27.12,-22.22484 27.12,-33.9v-2.26c0,-1.24978 1.01248,-2.26 2.26,-2.26c1.24752,0 2.26,1.01022 2.26,2.26v2.26c0,13.02664 -17.08108,38.42 -31.64,38.42z" fill="#1f212b"></path><path d="M83.62,97.26588c-0.08362,0 -0.1695,-0.00904 -0.25538,-0.02938l-10.17,-2.34588c-0.60794,-0.14238 -0.98762,-0.74806 -0.8475,-1.356c0.14012,-0.6102 0.75258,-0.98536 1.356,-0.8475l10.17,2.34588c0.60794,0.14238 0.98762,0.74806 0.8475,1.356c-0.11978,0.52432 -0.58534,0.87688 -1.10062,0.87688z" fill="#1f212b"></path><path d="M102.83,101.7c-0.08362,0 -0.1695,-0.00904 -0.25538,-0.02938l-14.69,-3.39c-0.60794,-0.14238 -0.98762,-0.74806 -0.8475,-1.356c0.14238,-0.6102 0.74806,-0.98988 1.356,-0.8475l14.69,3.39c0.60794,0.14238 0.98762,0.74806 0.8475,1.356c-0.11978,0.52432 -0.58534,0.87688 -1.10062,0.87688z" fill="#1f212b"></path><path d="M88.4225,114.1074c-0.58534,0 -1.08028,-0.44974 -1.12548,-1.04412c-0.04746,-0.6215 0.4181,-1.16616 1.0396,-1.21136l14.4075,-1.1074c0.64862,-0.10396 1.16616,0.4181 1.21362,1.0396c0.04746,0.6215 -0.4181,1.16616 -1.0396,1.21136l-14.4075,1.1074c-0.03164,0.00452 -0.06102,0.00452 -0.08814,0.00452z" fill="#1f212b"></path><path d="M73.45,115.26c-0.58534,0 -1.08028,-0.44974 -1.12548,-1.04412c-0.04746,-0.6215 0.4181,-1.16616 1.0396,-1.21136l10.17,-0.78196c0.62376,-0.11978 1.16616,0.41584 1.21362,1.0396c0.04746,0.6215 -0.4181,1.16616 -1.0396,1.21136l-10.17,0.78196c-0.03164,0.00452 -0.06102,0.00452 -0.08814,0.00452z" fill="#1f212b"></path><path d="M101.9825,106.22h-5.9325c-0.62376,0 -1.13,-0.50624 -1.13,-1.13c0,-0.62376 0.50624,-1.13 1.13,-1.13h5.9325c0.62376,0 1.13,0.50624 1.13,1.13c0,0.62376 -0.50624,1.13 -1.13,1.13z" fill="#1f212b"></path><path d="M89.27,106.22h-4.52c-0.62376,0 -1.13,-0.50624 -1.13,-1.13c0,-0.62376 0.50624,-1.13 1.13,-1.13h4.52c0.62376,0 1.13,0.50624 1.13,1.13c0,0.62376 -0.50624,1.13 -1.13,1.13z" fill="#1f212b"></path><path d="M142.38,97.26588c-0.51528,0 -0.98084,-0.35256 -1.10062,-0.87688c-0.14012,-0.60794 0.23956,-1.21362 0.8475,-1.356l10.17,-2.34588c0.60568,-0.13786 1.21588,0.2373 1.356,0.8475c0.14012,0.60794 -0.23956,1.21362 -0.8475,1.356l-10.17,2.34588c-0.08588,0.02034 -0.17176,0.02938 -0.25538,0.02938z" fill="#1f212b"></path><path d="M123.17,101.7c-0.51528,0 -0.97858,-0.35256 -1.10062,-0.87688c-0.14012,-0.60794 0.23956,-1.21362 0.8475,-1.356l14.69,-3.39c0.6102,-0.14238 1.21362,0.2373 1.356,0.8475c0.14012,0.60794 -0.23956,1.21362 -0.8475,1.356l-14.69,3.39c-0.08588,0.02034 -0.17176,0.02938 -0.25538,0.02938z" fill="#1f212b"></path><path d="M137.5775,114.1074c-0.02938,0 -0.05876,0 -0.08814,-0.00452l-14.4075,-1.1074c-0.6215,-0.04746 -1.08706,-0.58986 -1.0396,-1.21136c0.04746,-0.6215 0.57856,-1.14808 1.21362,-1.0396l14.4075,1.1074c0.6215,0.04746 1.08706,0.58986 1.0396,1.21136c-0.04294,0.59438 -0.54014,1.04412 -1.12548,1.04412z" fill="#1f212b"></path><path d="M152.55,115.26c-0.02938,0 -0.05876,0 -0.08814,-0.00452l-10.17,-0.78196c-0.6215,-0.04746 -1.08706,-0.58986 -1.0396,-1.21136c0.04746,-0.62376 0.60116,-1.1639 1.21362,-1.0396l10.17,0.78196c0.6215,0.04746 1.08706,0.58986 1.0396,1.21136c-0.04294,0.59438 -0.54014,1.04412 -1.12548,1.04412z" fill="#1f212b"></path><path d="M129.95,106.22h-5.9325c-0.62376,0 -1.13,-0.50624 -1.13,-1.13c0,-0.62376 0.50624,-1.13 1.13,-1.13h5.9325c0.62376,0 1.13,0.50624 1.13,1.13c0,0.62376 -0.50624,1.13 -1.13,1.13z" fill="#1f212b"></path><path d="M141.25,106.22h-4.52c-0.62376,0 -1.13,-0.50624 -1.13,-1.13c0,-0.62376 0.50624,-1.13 1.13,-1.13h4.52c0.62376,0 1.13,0.50624 1.13,1.13c0,0.62376 -0.50624,1.13 -1.13,1.13z" fill="#1f212b"></path></g></g></svg>