<svg xmlns="http://www.w3.org/2000/svg" x="0px" y="0px"
height="24"
viewBox="0 0 172 172"><g fill="none" fill-rule="nonzero" stroke="none" stroke-width="1" stroke-linecap="butt" stroke-linejoin="miter" stroke-miterlimit="10" stroke-dasharray="" stroke-dashoffset="0" font-family="none" font-weight="none" font-size="none" text-anchor="none" style="mix-blend-mode: normal"><path d="M0,172v-172h172v172z" fill="none"></path><g fill="currentColor"><path d="M86,14.33333c-39.41667,0 -71.66667,32.25 -71.66667,71.66667c0,39.41667 32.25,71.66667 71.66667,71.66667c39.41667,0 71.66667,-32.25 71.66667,-71.66667c0,-39.41667 -32.25,-71.66667 -71.66667,-71.66667zM115.07517,117.57633c-1.34733,0 -2.021,-0.67367 -3.36833,-1.34733c-10.11217,-6.07017 -22.919,-9.4385 -36.3995,-9.4385c-7.4175,0 -15.5015,1.34733 -22.24533,2.69467c-1.34733,0 -2.69467,0.67367 -3.36833,0.67367c-2.69467,0 -4.71567,-2.021 -4.71567,-4.71567c0,-2.69467 1.34733,-4.71567 4.042,-4.71567c8.76483,-2.021 17.52967,-3.36833 26.96817,-3.36833c15.5015,0 29.66283,4.042 41.796,10.78583c1.34733,1.34733 2.69467,2.021 2.69467,4.71567c-1.36167,3.36833 -3.38267,4.71567 -5.40367,4.71567zM122.4855,98.7065c-1.34733,0 -2.69467,-0.67367 -4.042,-1.34733c-11.4595,-7.4175 -27.64183,-11.4595 -45.16433,-11.4595c-8.76483,0 -16.856,1.34733 -22.919,2.69467c-1.34733,0.67367 -2.021,0.67367 -3.36833,0.67367c-3.36833,0 -5.3965,-2.69467 -5.3965,-5.3965c0,-3.36833 1.34733,-4.71567 4.71567,-6.07017c8.09117,-2.021 16.18233,-4.042 27.64183,-4.042c18.877,0 36.3995,4.71567 51.2345,13.4805c2.021,1.34733 3.36833,3.36833 3.36833,5.3965c-0.67367,3.36833 -2.69467,6.07017 -6.07017,6.07017zM131.25033,77.12767c-1.34733,0 -2.021,-0.67367 -4.042,-1.34733c-13.4805,-7.4175 -33.03117,-12.13317 -51.90817,-12.13317c-9.4385,0 -19.55067,1.34733 -28.3155,3.36833c-1.34733,0 -2.021,0.67367 -4.042,0.67367c-4.042,0.68083 -6.74383,-2.69467 -6.74383,-6.73667c0,-4.042 2.021,-6.07017 4.71567,-6.74383c10.793,-2.69467 22.2525,-4.042 34.38567,-4.042c20.898,0 42.46967,4.71567 59.32567,13.4805c2.021,1.34733 4.042,3.36833 4.042,6.74383c-0.67367,4.042 -3.3755,6.73667 -7.4175,6.73667z"></path></g></g></svg>