<svg xmlns="http://www.w3.org/2000/svg" x="0px" y="0px"
height="24"
viewBox="0 0 172 172"><g fill="none" fill-rule="nonzero" stroke="none" stroke-width="1" stroke-linecap="butt" stroke-linejoin="miter" stroke-miterlimit="10" stroke-dasharray="" stroke-dashoffset="0" font-family="none" font-weight="none" font-size="none" text-anchor="none" style="mix-blend-mode: normal"><path d="M0,172v-172h172v172z" fill="none"></path><g fill="currentColor"><path d="M121.83333,21.5h-71.66667c-15.83117,0 -28.66667,12.8355 -28.66667,28.66667v71.66667c0,15.83117 12.8355,28.66667 28.66667,28.66667h71.66667c15.83117,0 28.66667,-12.8355 28.66667,-28.66667v-71.66667c0,-15.83117 -12.8355,-28.66667 -28.66667,-28.66667zM122.19167,68.18367c0,0.61633 0,1.2255 0,2.45817c0,23.34183 -17.81633,50.3745 -50.3745,50.3745c-9.8255,0 -19.04183,-3.0745 -27.0255,-7.98367c1.2255,0 3.0745,0 4.3,0c7.98367,0 15.9745,-3.0745 22.11633,-7.3745c-7.98367,0 -14.1255,-5.5255 -16.58367,-12.28367c1.2255,0 2.45817,0.61633 3.0745,0.61633c1.84183,0 3.0745,0 4.91633,-0.61633c-7.98367,-1.84183 -14.1255,-8.6 -14.1255,-17.2c2.45817,1.2255 4.91633,1.84183 7.98367,2.45817c-4.91633,-4.3 -7.98367,-9.21633 -7.98367,-15.35817c0,-3.0745 0.61633,-6.14183 2.45817,-8.6c8.6,10.44183 21.5,17.81633 36.24183,18.4255c0,-1.2255 -0.61633,-2.45817 -0.61633,-4.3c0,-9.8255 7.98367,-17.81633 17.81633,-17.81633c4.91633,0 9.8255,1.84183 12.9,5.5255c4.3,-0.61633 7.98367,-2.45817 11.05817,-4.3c-1.2255,4.3 -4.3,7.3745 -7.98367,9.8255c3.68367,-0.61633 6.75817,-1.2255 10.44183,-3.0745c-2.4725,3.698 -5.53983,6.76533 -8.61433,9.2235z"></path></g></g></svg>