<svg xmlns="http://www.w3.org/2000/svg" x="0px" y="0px"
height="24"
viewBox="0 0 172 172"><g fill="none" fill-rule="nonzero" stroke="none" stroke-width="1" stroke-linecap="butt" stroke-linejoin="miter" stroke-miterlimit="10" stroke-dasharray="" stroke-dashoffset="0" font-family="none" font-weight="none" font-size="none" text-anchor="none" style="mix-blend-mode: normal"><path d="M0,172v-172h172v172z" fill="none"></path><g fill="currentColor"><path d="M121.83333,21.5h-71.66667c-15.83117,0 -28.66667,12.8355 -28.66667,28.66667v71.66667c0,15.83117 12.8355,28.66667 28.66667,28.66667h40.28383v-49.88717h-16.7915v-19.52917h16.7915v-14.36917c0,-16.65533 10.18383,-25.7355 25.0475,-25.7355c5.0095,-0.01433 10.01183,0.24367 14.99267,0.7525v17.415h-10.234c-8.09833,0 -9.675,3.827 -9.675,9.47433v12.43417h19.35l-2.5155,19.52917h-16.94917v49.91583h11.36633c15.83117,0 28.66667,-12.8355 28.66667,-28.66667v-71.66667c0,-15.83117 -12.8355,-28.66667 -28.66667,-28.66667z"></path></g></g></svg>