<svg xmlns="http://www.w3.org/2000/svg" x="0px" y="0px"
height="50"
viewBox="0 0 172 172"><g fill="none" fill-rule="nonzero" stroke="none" stroke-width="1" stroke-linecap="butt" stroke-linejoin="miter" stroke-miterlimit="10" stroke-dasharray="" stroke-dashoffset="0" font-family="none" font-weight="none" font-size="none" text-anchor="none" style="mix-blend-mode: normal"><path d="M0,172v-172h172v172z" fill="none"></path><g fill="currentColor"><path d="M86,6.90016c-43.61576,0 -79.09312,35.48408 -79.09312,79.09984c0,43.61576 35.47737,79.09985 79.09313,79.09985c43.61576,0 79.09312,-35.48409 79.09313,-79.09985c0,-43.61576 -35.47737,-79.09984 -79.09313,-79.09984zM128.97985,37.02703c2.34608,1.60648 4.38336,3.64016 5.9864,5.99312l-20.51906,17.90547c-0.90472,-1.32784 -2.04841,-2.47809 -3.37281,-3.38625zM86,58.48c15.20136,0 27.52,12.31864 27.52,27.52c0,15.20136 -12.31864,27.52 -27.52,27.52c-15.20136,0 -27.52,-12.31864 -27.52,-27.52c0,-15.20136 12.31864,-27.52 27.52,-27.52zM86,79.12c-3.79972,0 -6.88,3.08028 -6.88,6.88c0,3.79972 3.08028,6.88 6.88,6.88c3.79972,0 6.88,-3.08028 6.88,-6.88c0,-3.79972 -3.08028,-6.88 -6.88,-6.88zM57.60656,110.89969c0.90472,1.32784 2.05513,2.47809 3.37953,3.38625l-18.14063,20.7475c-2.34608,-1.60648 -4.37665,-3.64016 -5.97969,-5.99312z"></path></g></g></svg>