<svg xmlns="http://www.w3.org/2000/svg" x="0px" y="0px"
height="50"
viewBox="0 0 172 172"><g fill="none" fill-rule="nonzero" stroke="none" stroke-width="1" stroke-linecap="butt" stroke-linejoin="miter" stroke-miterlimit="10" stroke-dasharray="" stroke-dashoffset="0" font-family="none" font-weight="none" font-size="none" text-anchor="none" style="mix-blend-mode: normal"><path d="M0,172v-172h172v172z" fill="none"></path><g fill="currentColor"><path d="M114.67563,10.32c-0.45282,-0.00728 -0.90262,0.07492 -1.3236,0.24188c-23.69791,2.45855 -31.33718,29.73379 -38.08188,53.98516l-0.51734,1.8611c-2.38048,8.53808 -6.83442,18.26645 -12.7925,30.24109c-3.06504,6.16448 -9.30977,9.99078 -16.29297,9.99078h-5.03906l-0.60469,0.23515c-0.01032,0.00344 -0.06343,0.02672 -0.08063,0.0336c-0.00344,0.00344 -0.01,0.00328 -0.01344,0.00672c-1.4276,0.56416 -21.80707,8.75314 -29.48859,19.7061c-3.17856,4.52704 -3.52998,7.38928 -3.56094,8.16328l-0.08063,2.02234l1.73344,1.05485c0.40936,0.24768 2.97501,1.71672 8.76797,3.00328c0.51944,-0.89096 1.09919,-1.80804 1.78719,-2.78156c6.44312,-9.09536 19.70125,-17.30858 28.93766,-22.27938c-1.03888,-0.43688 -2.01127,-1.05629 -2.62703,-2.28437h0.27547c9.61136,0 18.2127,-5.29287 22.44734,-13.81375c6.13008,-12.32896 10.7277,-22.39623 13.2561,-31.45719l0.51735,-1.8611c6.48588,-23.31933 13.22866,-47.34197 32.76062,-49.02672c0.13955,0.89465 -0.0752,3.17306 -0.7861,5.83188c-0.1086,0.36367 -0.15627,0.7428 -0.14109,1.12203c-9.99103,12.30511 -15.30834,31.11225 -20.21,48.55641l-0.60469,2.14328c-0.53664,1.9092 -1.07882,3.90585 -1.63266,5.95953c-3.39872,12.63512 -7.25227,26.95009 -14.44531,34.35297c-1.00104,1.03544 -2.489,1.63265 -4.07828,1.63265h-11.57641l-0.67187,0.30235c-1.09048,0.49192 -26.8671,12.17427 -35.80422,24.79219c-3.7152,5.24944 -4.03061,8.54877 -4.05813,9.15765l-0.06047,1.29672l0.81297,1.01453c1.60304,1.98488 10.49302,8.15656 57.72078,8.15656c45.93088,0 51.87251,-13.24088 54.86531,-30.94656l0.3964,-2.29109c1.1524,-6.42936 2.00461,-12.64399 2.76141,-18.12047c0.73272,-5.30104 1.57305,-11.39957 2.53969,-15.64797c2.07432,11.86456 4.65615,36.09082 4.79719,53.2461c0,1.89888 1.54112,3.44 3.44,3.44c1.89888,0 3.44,-1.54112 3.44,-3.44c0,0 0.62597,-19.30743 1.43781,-40.47375c0.45408,-11.79232 3.68569,-20.53261 6.81953,-28.98469c2.83112,-7.62648 5.50265,-14.8357 5.50265,-23.11922c0,-29.77664 -15.15008,-44.72 -23.63656,-44.72c-0.53664,0 -1.01571,0.08686 -1.53859,0.1075c-0.33368,-0.03784 -0.65366,-0.1075 -1.0011,-0.1075c-0.47128,0 -0.91424,0.09675 -1.3236,0.26875c-4.7403,0.47117 -8.89576,1.84767 -12.61781,3.87c-2.20161,-2.28861 -5.05843,-4.44109 -8.15656,-4.44109c-0.41865,0 -0.79316,0.06637 -1.20265,0.08062c-0.32339,-0.04167 -0.64845,-0.08062 -0.9675,-0.08062zM139.38719,17.65688c1.69592,3.1648 -4.62637,18.43421 -7.04125,24.25469c-0.56416,1.36224 -1.0973,2.65632 -1.5789,3.84312c-13.16144,32.60088 -19.25836,61.10107 -20.01516,69.09563c-0.4988,5.1772 -4.32822,15.86969 -13.01422,15.86969h-18.61765c-5.23224,0 -10.89727,-2.8036 -12.92687,-6.88h6.56422c3.43656,0 6.72208,-1.35563 9.01656,-3.71547c8.43488,-8.68256 12.53972,-23.91617 16.1586,-37.35625c0.54696,-2.0296 1.0793,-4.00395 1.6125,-5.88563l0.59797,-2.15c7.67808,-27.32392 15.65614,-55.4693 39.24422,-57.07578z"></path></g></g></svg>