<svg xmlns="http://www.w3.org/2000/svg" x="0px" y="0px"
height="50"
viewBox="0 0 172 172"><g fill="none" fill-rule="nonzero" stroke="none" stroke-width="1" stroke-linecap="butt" stroke-linejoin="miter" stroke-miterlimit="10" stroke-dasharray="" stroke-dashoffset="0" font-family="none" font-weight="none" font-size="none" text-anchor="none" style="mix-blend-mode: normal"><path d="M0,172v-172h172v172z" fill="none"></path><g fill="currentColor"><path d="M67.08,6.88c-8.54625,0 -15.48,6.93375 -15.48,15.48c0,8.54625 6.93375,15.48 15.48,15.48c8.54625,0 15.48,-6.93375 15.48,-15.48c0,-8.54625 -6.93375,-15.48 -15.48,-15.48zM89.44,41.28c-0.36281,0 -0.73906,0.02688 -1.10187,0.09406l-0.04031,-0.01344l-31.00031,6.90687c-2.05594,0.36281 -3.84312,1.63938 -4.85094,3.48031l-0.01344,0.01344l-9.86313,16.54156l-18.22125,-2.70094c-0.645,-0.16125 -1.31687,-0.24188 -1.98875,-0.24188c-4.74344,0 -8.6,3.85656 -8.6,8.6c0,4.55531 3.5475,8.31781 8.08938,8.58656l23.13937,3.25187l0.01344,-0.01344c0.47031,0.14781 0.95406,0.215 1.43781,0.215c1.935,0 3.72219,-1.08844 4.59563,-2.82187h0.01344l3.99094,-5.81844v20.34438l-9.54062,26.35094l-0.01344,0.06719c-0.49719,0.98094 -0.76594,2.05594 -0.76594,3.15781c0,0.40313 0.04031,0.80625 0.1075,1.20938v0.06719l6.94719,29.73719h0.01344c0.83312,3.9775 4.35375,6.82625 8.41187,6.82625c4.74344,0 8.6,-3.85656 8.6,-8.6c0,-0.95406 -0.16125,-1.89469 -0.48375,-2.795h0.02688l-5.99313,-23.03187l7.88781,-17.17313l5.44219,15.91l1.55875,3.19813l17.46875,22.33312h0.01344c1.63938,2.06938 4.12531,3.27875 6.75906,3.27875c4.74344,0 8.6,-3.85656 8.6,-8.6c0,-2.09625 -0.76594,-4.12531 -2.15,-5.6975l-18.49,-26.7675v-56.50469l11.91906,10.17219l0.05375,0.01344c0.95406,0.88688 2.20375,1.38406 3.50719,1.38406c0.5375,0 1.075,-0.08062 1.57219,-0.25531l0.08063,0.02688l21.1775,-6.94719c3.77594,-0.99438 6.40969,-4.4075 6.40969,-8.30438c0,-4.74344 -3.85656,-8.6 -8.6,-8.6c-1.27656,0 -2.55312,0.29563 -3.70875,0.86v-0.01344l-15.11719,5.67062l-12.28188,-11.20687c-1.29,-1.3975 -3.10406,-2.19031 -5.01219,-2.19031zM141.10719,72.24c-1.92156,0 -3.50719,1.51844 -3.50719,3.44v27.52c0,1.89469 -1.54531,3.44 -3.44,3.44h-6.88c-5.6975,0 -10.32,4.6225 -10.32,10.32c0,5.6975 4.6225,10.32 10.32,10.32h3.44c7.60563,0 13.76,-6.15437 13.76,-13.76v-25.8c0,-0.90031 0.71219,-1.69312 1.6125,-1.72c3.5475,-0.06719 5.20031,3.44 12.1475,3.44c1.89469,0 3.44,-1.54531 3.44,-3.44v-6.88c0,-1.89469 -1.54531,-3.44 -3.44,-3.44c-9.41969,0 -8.74781,-3.42656 -17.13281,-3.44z"></path></g></g></svg>