<svg xmlns="http://www.w3.org/2000/svg" x="0px" y="0px"
height="50"
viewBox="0 0 172 172"><g fill="none" fill-rule="nonzero" stroke="none" stroke-width="1" stroke-linecap="butt" stroke-linejoin="miter" stroke-miterlimit="10" stroke-dasharray="" stroke-dashoffset="0" font-family="none" font-weight="none" font-size="none" text-anchor="none" style="mix-blend-mode: normal"><path d="M0,172v-172h172v172z" fill="none"></path><g fill="currentColor"><path d="M20.64,20.64c-5.676,0 -10.32,4.644 -10.32,10.32v110.08c0,5.676 4.644,10.32 10.32,10.32h130.72c5.7104,0 10.32,-4.6096 10.32,-10.32v-110.08c0,-5.676 -4.644,-10.32 -10.32,-10.32h-113.52v113.52c0,1.892 -1.548,3.44 -3.44,3.44c-1.892,0 -3.44,-1.548 -3.44,-3.44v-113.52zM96.32,37.84c26.5912,0 48.16,21.5688 48.16,48.16c0,2.62037 -0.26882,5.17254 -0.67187,7.67953c-0.24761,1.45461 -0.52308,2.9001 -0.8936,4.32015c-0.02652,0.10315 -0.05344,0.20618 -0.08063,0.30906c-0.43003,1.60791 -0.94284,3.18579 -1.51172,4.72328c-6.07652,16.03463 -20.44029,27.94948 -37.88031,30.54344c-1.20251,0.19131 -2.44265,0.30539 -3.68859,0.40985c-1.13819,0.08053 -2.27466,0.17469 -3.43328,0.17469c-26.5912,0 -48.16,-21.5688 -48.16,-48.16c0,-26.5912 21.5688,-48.16 48.16,-48.16zM96.32,65.36c-11.35841,0 -20.64,9.28159 -20.64,20.64c0,11.35841 9.28159,20.64 20.64,20.64c11.35841,0 20.64,-9.28159 20.64,-20.64c0,-11.35841 -9.28159,-20.64 -20.64,-20.64zM96.32,72.24c7.64018,0 13.76,6.11982 13.76,13.76c0,7.64018 -6.11982,13.76 -13.76,13.76c-7.64018,0 -13.76,-6.11982 -13.76,-13.76c0,-7.64018 6.11982,-13.76 13.76,-13.76zM96.32,79.12c-3.75897,0 -6.88,3.12103 -6.88,6.88c0,3.75897 3.12103,6.88 6.88,6.88c3.75897,0 6.88,-3.12103 6.88,-6.88c0,-3.75897 -3.12103,-6.88 -6.88,-6.88zM143.78797,93.83406c-0.18956,1.15515 -0.41505,2.29387 -0.68531,3.41984c0.27112,-1.12592 0.49673,-2.26466 0.68531,-3.41984zM142.67265,98.92015c-0.38148,1.36998 -0.82018,2.71333 -1.31687,4.03125c0.50807,-1.31508 0.9334,-2.66669 1.31687,-4.03125zM102.2325,133.75687c-0.72342,0.0888 -1.45064,0.15867 -2.1836,0.215c0.73565,-0.05615 1.46317,-0.12853 2.1836,-0.215z"></path></g></g></svg>