<svg xmlns="http://www.w3.org/2000/svg" x="0px" y="0px"
width="50"
viewBox="0 0 172 172"><g fill="none" fill-rule="nonzero" stroke="none" stroke-width="1" stroke-linecap="butt" stroke-linejoin="miter" stroke-miterlimit="10" stroke-dasharray="" stroke-dashoffset="0" font-family="none" font-weight="none" font-size="none" text-anchor="none" style="mix-blend-mode: normal"><path d="M0,172v-172h172v172z" fill="none"></path><g fill="currentColor"><path d="M68.8,6.88v6.88c0,5.68976 4.63024,10.32 10.32,10.32h3.44v31.07422c-0.01118,0.00071 -0.02241,-0.00072 -0.0336,0c-0.41731,0.02659 -0.82829,0.0782 -1.24297,0.11422c-0.74885,0.06522 -1.49761,0.13304 -2.23734,0.22844c-0.51141,0.06585 -1.01828,0.14844 -1.52516,0.22844c-0.60761,0.09597 -1.21333,0.19994 -1.81406,0.31578c-0.53628,0.10341 -1.06844,0.21692 -1.59906,0.33594c-0.61159,0.13709 -1.21713,0.28618 -1.82078,0.44344c-0.44931,0.11724 -0.89894,0.2278 -1.34375,0.3561c-0.82942,0.23865 -1.64624,0.50367 -2.45906,0.77937c-0.23186,0.07892 -0.46827,0.14653 -0.69875,0.22844c-0.29808,0.10554 -0.58446,0.23225 -0.88015,0.34266c-1.4764,0.55356 -2.92579,1.16815 -4.34031,1.84094c-0.24142,0.11413 -0.49958,0.19839 -0.73906,0.31578c-0.10839,0.05485 -0.2138,0.1154 -0.31578,0.1814c-1.1219,0.56258 -2.22103,1.15317 -3.2989,1.78719c4.26216,5.72416 11.47294,15.74676 11.73094,16.11828c2.3564,3.38496 2.29781,6.03225 2.29781,7.22937c0,1.15928 -0.2916,2.33001 -0.8936,3.39297c-0.11352,0.19952 -2.07276,3.6499 -4.07828,7.0211c1.99176,3.25768 3.92445,6.56642 4.03797,6.75906c1.56176,2.67976 1.13611,6.07902 -1.04141,8.29094c-1.32784,1.35192 -3.10884,2.05594 -4.9114,2.05594c-1.14896,0 -2.3033,-0.29191 -3.35938,-0.88015c-0.19608,-0.11008 -3.6171,-2.02998 -6.9539,-3.99766c-3.3368,1.96768 -6.75782,3.88758 -6.9539,3.99766c-1.05608,0.59168 -2.21042,0.88015 -3.35938,0.88015c-1.79912,0 -3.58356,-0.70402 -4.9114,-2.05594c-1.04974,-1.06801 -1.68016,-2.41694 -1.88797,-3.82297c-0.00989,-0.09008 -0.02334,-0.17973 -0.04031,-0.26875c-0.15319,-1.42314 0.12743,-2.89613 0.88687,-4.19922c0.11352,-0.19264 2.04621,-3.50138 4.03797,-6.75906c-1.1696,-1.96424 -4.10462,-7.07571 -6.13422,-10.62235c-3.62576,7.33752 -5.71765,15.56444 -5.71765,24.28828c0,1.89673 0.09393,3.76897 0.28219,5.61687c0.00022,0.00221 -0.00022,0.00452 0,0.00672c0.37674,3.69345 1.12388,7.28049 2.19703,10.72312c0.00064,0.00206 -0.00064,0.00466 0,0.00672c1.07355,3.44252 2.47663,6.73898 4.17234,9.85641c0.00096,0.00177 -0.00096,0.00495 0,0.00672c0.84759,1.55784 1.77234,3.07242 2.7614,4.53515c0.00107,0.00158 -0.00107,0.00514 0,0.00672c2.96982,4.39116 6.55802,8.33061 10.63578,11.69735c1.35962,1.12246 2.76854,2.18129 4.23281,3.17125c0.00149,0.001 0.00523,-0.00101 0.00672,0c1.4628,0.98874 2.97719,1.91415 4.53515,2.7614c1.56121,0.84943 3.16321,1.61994 4.81063,2.31797c1.64574,0.69711 3.32996,1.31762 5.0525,1.85438c1.72428,0.53772 3.48235,0.98953 5.27422,1.35719c1.79007,0.36712 3.60732,0.65164 5.45562,0.83985c1.85006,0.18871 3.72458,0.28219 5.6236,0.28219c7.6797,0 15.00299,-1.58712 21.64781,-4.43437c1.16582,-0.45946 1.98962,-1.51645 2.15045,-2.75918c0.16083,-1.24273 -0.36675,-2.47461 -1.37719,-3.21572c-1.01044,-0.74111 -2.34392,-0.87421 -3.48092,-0.34744c-3.44917,1.47794 -7.11865,2.50994 -10.92469,3.15109c0.55277,-5.11504 1.04798,-10.62978 1.41094,-16.71625c5.42144,-0.2752 10.57935,-0.83635 15.56735,-1.55875c-1.66496,-2.25664 -2.89272,-3.92627 -3.02344,-4.10515c-2.00552,-2.73824 -1.71581,-6.5281 0.68531,-8.92922c1.33128,-1.33128 3.09949,-2.01563 4.87109,-2.01563c0.95288,0 1.88045,0.2694 2.77485,0.67188c0.14448,-1.78192 0.32368,-3.52477 0.41656,-5.35485c-5.35983,0.31698 -11.11751,0.54011 -17.07235,0.69203c0.06083,-3.32474 0.11422,-6.6731 0.11422,-10.11844c0,-3.48016 -0.09308,-6.76182 -0.15453,-10.11844c5.96957,0.15185 11.74062,0.37433 17.11266,0.69203c-0.344,-6.7424 -1.03066,-13.17466 -2.06266,-19.22906c-6.0544,-1.032 -12.48666,-1.71866 -19.22906,-2.06266c-0.36311,-6.08907 -0.85786,-11.6062 -1.41094,-16.72297c6.58456,1.10158 12.70775,3.51468 18.0936,6.99422c0.96704,3.74688 1.84864,7.62885 2.5464,11.7914c4.16256,0.69777 8.04453,1.57937 11.7914,2.5464c3.47954,5.38584 5.89264,11.50904 6.99422,18.0936c-5.11677,-0.55307 -10.6339,-1.04783 -16.72297,-1.41094c0.172,3.096 0.24187,6.2272 0.24187,9.4264c0,3.1992 -0.06987,6.3304 -0.24187,9.4264c6.08907,-0.36311 11.6062,-0.85786 16.72297,-1.41094c-0.51951,2.99905 -1.29219,5.91367 -2.33141,8.71422c-0.45736,1.15913 -0.25218,2.47496 0.53637,3.43982c0.78855,0.96486 2.03719,1.4279 3.26417,1.21047c1.22698,-0.21743 2.24048,-1.08134 2.64946,-2.25841c2.20541,-5.94326 3.48031,-12.37674 3.48031,-19.12156c0,-1.89673 -0.09393,-3.77569 -0.28219,-5.6236c-0.1882,-1.84831 -0.47272,-3.66556 -0.83985,-5.45562c-0.36723,-1.78977 -0.82029,-3.55187 -1.35719,-5.27422c-0.53675,-1.72254 -1.15727,-3.40676 -1.85438,-5.0525c-0.69727,-1.64564 -1.46962,-3.251 -2.31797,-4.81063c-0.84726,-1.55796 -1.77266,-3.07235 -2.7614,-4.53515v-0.00672c-0.98996,-1.46428 -2.04879,-2.87319 -3.17125,-4.23281c-3.36673,-4.07777 -7.30618,-7.66596 -11.69735,-10.63578h-0.00672c-1.46274,-0.98907 -2.97731,-1.91381 -4.53515,-2.7614h-0.00672c-3.11742,-1.69571 -6.41389,-3.09879 -9.85641,-4.17235h-0.00672c-3.44264,-1.07315 -7.02967,-1.82029 -10.72312,-2.19703h-0.00672c-0.71614,-0.07296 -1.45297,-0.06239 -2.17687,-0.1075v-31.13469h3.44c5.68976,0 10.32,-4.63024 10.32,-10.32v-6.88zM27.52,44.72c0,0 8.815,12.02699 12.685,17.02531c-3.87,4.99832 -12.685,17.02531 -12.685,17.02531c0,0 12.02699,-8.81532 17.02531,-12.67156c4.99832,3.85624 17.03875,12.67156 17.03875,12.67156c0,0 -8.82532,-12.02699 -12.685,-17.02531c3.85968,-4.99832 12.685,-17.02531 12.685,-17.02531c0,0 -12.04043,8.81532 -17.03875,12.67156c-4.99832,-3.85624 -17.02531,-12.67156 -17.02531,-12.67156zM44.72,86c0,0 3.77669,6.66661 6.18125,10.46781c-2.40456,3.69456 -6.18125,10.17219 -6.18125,10.17219c0,0 6.5704,-3.68048 10.32,-6.03344c1.8748,1.17648 4.45292,2.68255 6.56422,3.89687c2.1113,1.21432 3.75578,2.13656 3.75578,2.13656c0,0 -0.94546,-1.62083 -2.19031,-3.70203c-1.24485,-2.0812 -2.78866,-4.62287 -3.99094,-6.47015c2.40456,-3.8012 6.18125,-10.46781 6.18125,-10.46781c0,0 -6.5704,3.86946 -10.32,6.32906c-3.7496,-2.4596 -10.32,-6.32906 -10.32,-6.32906zM86,99.76c2.28429,0 4.49394,0.03745 6.71875,0.06719c0.06487,3.39693 0.16125,6.72387 0.16125,10.25281c0,3.492 -0.05097,6.88744 -0.11422,10.25281c-2.23996,0.03016 -4.4655,0.06719 -6.76578,0.06719c-3.4744,0 -6.88242,-0.03198 -10.21922,-0.10078c0.1376,7.224 0.41441,14.10051 0.79281,20.49891c-6.7424,-0.344 -13.17466,-1.03066 -19.22906,-2.06266c-1.032,-6.0544 -1.71865,-12.48666 -2.06266,-19.22906c6.3984,0.3784 13.27491,0.65521 20.49891,0.79281c-0.0688,-3.3368 -0.10078,-6.74482 -0.10078,-10.21922c0,-3.4744 0.03198,-6.88242 0.10078,-10.21922c3.3368,-0.0688 6.74482,-0.10078 10.21922,-0.10078zM113.52,131.06937c0,0 8.815,12.02699 12.685,17.02531c-3.87,4.99832 -12.685,17.02531 -12.685,17.02531c0,0 12.02699,-8.81532 17.02531,-12.67156c4.99832,3.85968 17.03875,12.67156 17.03875,12.67156c0,0 -8.82532,-12.02699 -12.685,-17.02531c3.85624,-4.99832 12.685,-17.02531 12.685,-17.02531c0,0 -12.04043,8.81532 -17.03875,12.67156c-4.99832,-3.85968 -17.02531,-12.67156 -17.02531,-12.67156z"></path></g></g></svg>