<svg xmlns="http://www.w3.org/2000/svg" x="0px" y="0px"
height="50"
viewBox="0 0 172 172"><g fill="none" fill-rule="nonzero" stroke="none" stroke-width="1" stroke-linecap="butt" stroke-linejoin="miter" stroke-miterlimit="10" stroke-dasharray="" stroke-dashoffset="0" font-family="none" font-weight="none" font-size="none" text-anchor="none" style="mix-blend-mode: normal"><path d="M0,172v-172h172v172z" fill="none"></path><g fill="currentColor"><path d="M6.665,9.5675c-1.89469,0 -3.44,1.54531 -3.44,3.44v122.765c0,8.98969 2.62031,16.2325 7.955,21.5c8.47906,8.385 20.61313,8.6 21.8225,8.6h109.3275c0.18813,0 1.37063,0.02688 3.01,-0.215c-10.70969,-1.35719 -26.23,-8.73437 -26.23,-29.885v-122.765c0,-1.89469 -1.53187,-3.44 -3.44,-3.44zM125.99,32.68v103.0925c0,22.85719 22.06438,23.22 23.005,23.22c1.85438,-0.01344 17.2,-0.71219 19.565,-18.275c0.16125,-1.49156 0.215,-3.05031 0.215,-4.73v-86.3225c0,-0.01344 0,-0.09406 0,-0.1075c-0.12094,-4.98531 -2.795,-13.73312 -11.7175,-16.125c-2.795,0.67188 -5.11969,1.92156 -6.88,3.7625c-4.55531,4.75688 -4.4075,12.08031 -4.4075,12.1475v83.5275c0,1.90813 -1.53187,3.44 -3.44,3.44c-1.90812,0 -3.44,-1.53187 -3.44,-3.44v-83.42c-0.01344,-0.25531 -0.34937,-9.84969 6.02,-16.77zM24.8325,37.84h67.8325c1.90813,0 3.44,1.54531 3.44,3.44c0,1.89469 -1.53187,3.44 -3.44,3.44h-67.8325c-1.89469,0 -3.44,-1.54531 -3.44,-3.44c0,-1.89469 1.54531,-3.44 3.44,-3.44zM24.8325,51.6h67.8325c1.90813,0 3.44,1.54531 3.44,3.44c0,1.89469 -1.53187,3.44 -3.44,3.44h-67.8325c-1.89469,0 -3.44,-1.54531 -3.44,-3.44c0,-1.89469 1.54531,-3.44 3.44,-3.44zM26.445,79.12h23.3275c1.89469,0 3.44,1.54531 3.44,3.44c0,1.89469 -1.54531,3.44 -3.44,3.44h-23.3275c-1.89469,0 -3.44,-1.54531 -3.44,-3.44c0,-1.89469 1.54531,-3.44 3.44,-3.44zM66.1125,79.12h26.5525c1.90813,0 3.44,1.54531 3.44,3.44c0,1.89469 -1.53187,3.44 -3.44,3.44h-26.5525c-1.89469,0 -3.44,-1.54531 -3.44,-3.44c0,-1.89469 1.54531,-3.44 3.44,-3.44zM26.445,92.88h23.3275c1.89469,0 3.44,1.53188 3.44,3.44c0,1.90813 -1.54531,3.44 -3.44,3.44h-23.3275c-1.89469,0 -3.44,-1.53187 -3.44,-3.44c0,-1.90812 1.54531,-3.44 3.44,-3.44zM66.1125,92.88h26.5525c1.90813,0 3.44,1.53188 3.44,3.44c0,1.90813 -1.53187,3.44 -3.44,3.44h-26.5525c-1.89469,0 -3.44,-1.53187 -3.44,-3.44c0,-1.90812 1.54531,-3.44 3.44,-3.44zM66.1125,105.8875h26.5525c1.90813,0 3.44,1.53188 3.44,3.44c0,1.90813 -1.53187,3.44 -3.44,3.44h-26.5525c-1.89469,0 -3.44,-1.53187 -3.44,-3.44c0,-1.90812 1.54531,-3.44 3.44,-3.44zM26.445,106.64h23.3275c1.89469,0 3.44,1.53188 3.44,3.44c0,1.90813 -1.54531,3.44 -3.44,3.44h-23.3275c-1.89469,0 -3.44,-1.53187 -3.44,-3.44c0,-1.90812 1.54531,-3.44 3.44,-3.44zM66.1125,119.6475h26.5525c1.90813,0 3.44,1.53188 3.44,3.44c0,1.90813 -1.53187,3.44 -3.44,3.44h-26.5525c-1.89469,0 -3.44,-1.53187 -3.44,-3.44c0,-1.90812 1.54531,-3.44 3.44,-3.44zM26.445,120.4h23.3275c1.89469,0 3.44,1.53188 3.44,3.44c0,1.90813 -1.54531,3.44 -3.44,3.44h-23.3275c-1.89469,0 -3.44,-1.53187 -3.44,-3.44c0,-1.90812 1.54531,-3.44 3.44,-3.44zM66.1125,132.5475h26.5525c1.90813,0 3.44,1.53188 3.44,3.44c0,1.90813 -1.53187,3.44 -3.44,3.44h-26.5525c-1.89469,0 -3.44,-1.53187 -3.44,-3.44c0,-1.90812 1.54531,-3.44 3.44,-3.44zM26.445,134.16h23.3275c1.89469,0 3.44,1.53188 3.44,3.44c0,1.90813 -1.54531,3.44 -3.44,3.44h-23.3275c-1.89469,0 -3.44,-1.53187 -3.44,-3.44c0,-1.90812 1.54531,-3.44 3.44,-3.44z"></path></g></g></svg>